HIERARCHY
ROOT Hips
{
	OFFSET 0.00000 0.00000 0.00000
	CHANNELS 6 Xposition Yposition Zposition Zrotation Yrotation Xrotation 
	JOINT LHipJoint
	{
		OFFSET 0 0 0
		CHANNELS 3 Zrotation Yrotation Xrotation
		JOINT LeftHip
		{
			OFFSET 1.29432 -1.88279 0.59910
			CHANNELS 3 Zrotation Yrotation Xrotation
			JOINT LeftKnee
			{
				OFFSET 2.63039 -7.22694 0.00000
				CHANNELS 3 Zrotation Yrotation Xrotation
				JOINT LeftAnkle
				{
					OFFSET 2.70674 -7.43672 0.00000
					CHANNELS 3 Zrotation Yrotation Xrotation
					JOINT LeftToe
					{
						OFFSET 0.15066 -0.41394 2.09027
						CHANNELS 3 Zrotation Yrotation Xrotation
						End Site
						{
							OFFSET 0.00000 -0.00000 1.07518
						}
					}
				}
			}
		}
	}
	JOINT RHipJoint
	{
		OFFSET 0 0 0
		CHANNELS 3 Zrotation Yrotation Xrotation
		JOINT RightHip
		{
			OFFSET -1.37068 -1.88279 0.59910
			CHANNELS 3 Zrotation Yrotation Xrotation
			JOINT RightKnee
			{
				OFFSET -2.57023 -7.06166 0.00000
				CHANNELS 3 Zrotation Yrotation Xrotation
				JOINT RightAnkle
				{
					OFFSET -2.76461 -7.59570 0.00000
					CHANNELS 3 Zrotation Yrotation Xrotation
					JOINT RightToe
					{
						OFFSET -0.24175 -0.64785 2.19719
						CHANNELS 3 Zrotation Yrotation Xrotation
						End Site
						{
							OFFSET -0.00000 -0.00000 1.14803
						}
					}
				}
			}
		}
	}
	JOINT lowerback
	{
		OFFSET 0 0 0
		CHANNELS 3 Zrotation Yrotation Xrotation
		JOINT Chest
		{
			OFFSET -0.03138 2.03983 -0.23106
			CHANNELS 3 Zrotation Yrotation Xrotation
			JOINT Chest2
			{
				OFFSET -0.00325 2.06238 -0.06878
				CHANNELS 3 Zrotation Yrotation Xrotation
				JOINT lowerneck
				{
					OFFSET 0 0 0
					CHANNELS 3 Zrotation Yrotation Xrotation
					JOINT Neck
					{
						OFFSET -0.00002 1.75318 0.18090
						CHANNELS 3 Zrotation Yrotation Xrotation
						JOINT Head
						{
							OFFSET 0.08806 1.75856 -0.25387
							CHANNELS 3 Zrotation Yrotation Xrotation
							End Site
							{
								OFFSET 0.02554 1.78597 -0.10684
							}
						}
					}
				}
				JOINT LeftCollar
				{
					OFFSET 0 0 0
					CHANNELS 3 Zrotation Yrotation Xrotation
					JOINT LeftShoulder
					{
						OFFSET 3.09657 1.33597 -0.04414
CHANNELS 3 Zrotation Xrotation Yrotation
						JOINT LeftElbow
						{
OFFSET 0 -5.342980 -0.000000
CHANNELS 3 Zrotation Xrotation Yrotation
							JOINT LeftWrist
							{
OFFSET 0 -3.672620 -0.000000
CHANNELS 3 Zrotation Xrotation Yrotation
								JOINT lhand
								{
									OFFSET 0 0 0
CHANNELS 3 Zrotation Xrotation Yrotation
									JOINT LFingers
									{
OFFSET 0 -0.599300 -0.000000
CHANNELS 3 Zrotation Xrotation Yrotation
										End Site
										{
OFFSET 0 -0.483170 -0.000000
										}
									}
								}
								JOINT LThumb
								{
OFFSET 0 0.000000 0.000000
CHANNELS 3 Zrotation Xrotation Yrotation
									End Site
									{
OFFSET 0 -0.490550 0.490550
									}
								}
							}
						}
					}
				}
				JOINT RightCollar
				{
					OFFSET 0 0 0
					CHANNELS 3 Zrotation Yrotation Xrotation
					JOINT RightShoulder
					{
						OFFSET -3.16460 1.32273 -0.23382
CHANNELS 3 Zrotation Xrotation Yrotation
						JOINT RightElbow
						{
OFFSET 0 -5.549670 0.033480
CHANNELS 3 Zrotation Xrotation Yrotation
							JOINT RightWrist
							{
OFFSET 0 -3.694010 0.000000
CHANNELS 3 Zrotation Xrotation Yrotation
								JOINT rhand
								{
									OFFSET 0 0 0
CHANNELS 3 Zrotation Xrotation Yrotation
									JOINT RFingers
									{
OFFSET 0 -0.638110 0.000000
CHANNELS 3 Zrotation Xrotation Yrotation
										End Site
										{
OFFSET 0 -0.514460 0.000000
										}
									}
								}
								JOINT RThumb
								{
OFFSET 0 0.000000 0.000000
CHANNELS 3 Zrotation Xrotation Yrotation
									End Site
									{
OFFSET 0 -0.522320 0.522320
									}
								}
							}
						}
					}
				}
			}
		}
	}
}
MOTION
Frames: 5
Frame Time: 0.008333333333333333
18.293500 18.017600 -15.564000 4.973700 -5.923200 3.252300 0.000000 0.000000 0.000000 -24.039300 9.090000 13.764800 0.000000 0.000000 0.000000 -0.920800 -17.559200 0.715700 0.101600 2.055300 5.658400 0.000000 0.000000 0.000000 9.952500 19.835500 -26.364300 -1.229700 -7.032800 19.812700 0.008600 -9.880500 -13.931300 -0.089100 1.925400 -5.299600 -8.162900 0.703800 -0.651100 -2.406200 1.115100 1.647700 2.107800 0.446100 1.968700 -2.506300 -3.942600 -10.003100 3.901200 -7.072400 40.121500 0.993800 -2.874700 16.287000 -0.000000 -0.000000 0.000000 10.572400 4.892400 -63.819800 118.590400 -56.674000 84.483500 3.663600 34.678200 -37.183700 0.000000 0.000000 0.000000 -7.125000 0.000000 0.000000 -37.535600 63.280900 17.912500 -0.000000 -0.000000 0.000000 -4.855000 3.089000 67.758200 -98.667300 -59.714200 -67.498900 -43.717400 -86.448500 -6.709600 0.000000 0.000000 0.000000 7.125000 0.000000 -0.000000 -12.176200 20.821100 -7.215000
18.284245 18.016158 -15.518324 5.009880 -5.916679 3.268227 0.000000 0.000000 0.000000 -24.040081 9.129876 13.920459 0.000000 0.000000 0.000000 -0.917675 -17.531013 0.712364 0.083630 1.834011 5.047842 0.000000 0.000000 0.000000 9.983542 19.896051 -26.297138 -1.249293 -7.085989 19.970703 -0.004622 -9.655365 -13.840308 -0.081678 1.838675 -5.060221 -8.225554 0.652114 -0.743023 -2.337806 1.055090 1.628498 2.213005 0.413886 2.004640 -2.619138 -3.946687 -9.873554 3.875147 -7.042711 40.133310 1.010388 -2.885788 16.263501 0.000000 0.000000 0.000000 10.532524 4.822894 -64.024621 118.055629 -56.802494 84.035573 4.360912 35.063442 -36.984558 0.000000 0.000000 0.000000 -7.125000 0.000000 0.000000 -36.589834 63.307194 17.424216 0.000000 0.000000 0.000000 -4.951521 3.210462 67.696267 -98.655430 -59.714981 -67.488653 -43.938238 -87.807755 -8.009537 0.000000 0.000000 0.000000 7.125000 0.000000 0.000000 -12.071145 19.047304 -7.622419
18.274989 18.014715 -15.472648 5.046061 -5.910158 3.284153 0.000000 0.000000 0.000000 -24.040863 9.169753 14.076119 0.000000 0.000000 0.000000 -0.914550 -17.502826 0.709029 0.065660 1.612722 4.437285 0.000000 0.000000 0.000000 10.014583 19.956602 -26.229976 -1.268885 -7.139177 20.128707 -0.017844 -9.430230 -13.749317 -0.074255 1.751951 -4.820842 -8.288209 0.600428 -0.834946 -2.269412 0.995080 1.609296 2.318211 0.381673 2.040580 -2.731976 -3.950774 -9.744008 3.849093 -7.013021 40.145119 1.026975 -2.896877 16.240002 0.000000 0.000000 0.000000 10.492647 4.753388 -64.229443 117.520857 -56.930988 83.587647 5.058224 35.448684 -36.785416 0.000000 0.000000 0.000000 -7.125000 0.000000 0.000000 -35.644067 63.333488 16.935932 0.000000 0.000000 0.000000 -5.048042 3.331925 67.634334 -98.643560 -59.715763 -67.478406 -44.159076 -89.167011 -9.309473 0.000000 0.000000 0.000000 7.125000 0.000000 0.000000 -11.966090 17.273507 -8.029838
18.265734 18.013273 -15.426972 5.082241 -5.903637 3.300080 0.000000 0.000000 0.000000 -24.041644 9.209629 14.231778 0.000000 0.000000 0.000000 -0.911424 -17.474639 0.705693 0.047690 1.391434 3.826727 0.000000 0.000000 0.000000 10.045625 20.017153 -26.162814 -1.288478 -7.192366 20.286710 -0.031066 -9.205094 -13.658325 -0.066833 1.665226 -4.581463 -8.350863 0.548742 -0.926870 -2.201018 0.935070 1.590094 2.423416 0.349459 2.076520 -2.844814 -3.954860 -9.614462 3.823040 -6.983332 40.156929 1.043563 -2.907965 16.216503 0.000000 0.000000 0.000000 10.452771 4.683882 -64.434264 116.986086 -57.059482 83.139720 5.755537 35.833926 -36.586274 0.000000 0.000000 0.000000 -7.125000 0.000000 0.000000 -34.698301 63.359781 16.447649 0.000000 0.000000 0.000000 -5.144563 3.453387 67.572400 -98.631691 -59.716544 -67.468159 -44.379914 -90.526266 -10.609410 0.000000 0.000000 0.000000 7.125000 0.000000 0.000000 -11.861035 15.499711 -8.437257
18.256498 18.005689 -15.380710 5.143167 -5.896389 3.318592 0.000000 0.000000 0.000000 -24.051233 9.215549 14.320332 0.000000 0.000000 0.000000 -0.911329 -17.339471 1.281724 0.206352 2.244601 6.226868 0.000000 0.000000 0.000000 10.041821 20.094106 -26.110540 -1.307970 -7.244282 20.441340 -0.038006 -9.031268 -13.539073 -0.092640 1.893869 -5.214799 -8.402408 0.528992 -1.050952 -2.183731 0.920571 1.549399 2.470889 0.341304 2.104723 -2.865923 -3.980824 -9.421083 3.812419 -7.020485 40.196151 1.041485 -2.932002 16.192438 0.000000 0.000000 0.000000 10.499533 4.689441 -64.711281 116.485453 -57.173776 82.719185 6.407236 36.274073 -36.428967 0.000000 0.000000 0.000000 -7.125000 0.000000 0.000000 -33.845234 63.405064 16.029642 0.000000 0.000000 0.000000 -5.155777 3.650379 67.412011 -98.707369 -59.711427 -67.533501 -44.537303 -86.494053 -6.417098 0.000000 0.000000 0.000000 7.125000 0.000000 0.000000 -12.817871 21.145901 -6.775314
